<?xml version="1.0" encoding="UTF-8" standalone="no"?>
<!-- Created with Inkscape (http://www.inkscape.org/) -->

<svg
   width="190.34663mm"
   height="122.20699mm"
   viewBox="0 0 190.34664 122.20699"
   version="1.1"
   id="svg1"
   xml:space="preserve"
   inkscape:version="1.4.3 (0d15f75042, 2025-12-25)"
   sodipodi:docname="pattern.svg"
   xmlns:inkscape="http://www.inkscape.org/namespaces/inkscape"
   xmlns:sodipodi="http://sodipodi.sourceforge.net/DTD/sodipodi-0.dtd"
   xmlns="http://www.w3.org/2000/svg"
   xmlns:svg="http://www.w3.org/2000/svg"><sodipodi:namedview
     id="namedview1"
     pagecolor="#ffffff"
     bordercolor="#000000"
     borderopacity="0.25"
     inkscape:showpageshadow="2"
     inkscape:pageopacity="0.0"
     inkscape:pagecheckerboard="0"
     inkscape:deskcolor="#d1d1d1"
     inkscape:document-units="mm"
     showguides="true"
     inkscape:zoom="0.71446409"
     inkscape:cx="289.72765"
     inkscape:cy="190.35246"
     inkscape:window-width="1920"
     inkscape:window-height="1003"
     inkscape:window-x="0"
     inkscape:window-y="0"
     inkscape:window-maximized="1"
     inkscape:current-layer="layer1" /><defs
     id="defs1" /><g
     inkscape:label="Capa 1"
     inkscape:groupmode="layer"
     id="layer1"
     transform="translate(-10.731633,-42.015938)"><g
       id="g4"
       transform="translate(-36.648287,-44.202152)"><rect
         style="fill:#2a9d8f;fill-opacity:1;stroke:none;stroke-width:3.52777;stroke-dasharray:none;paint-order:stroke fill markers"
         id="rect14"
         width="11.780048"
         height="11.780048"
         x="22.489185"
         y="117.62199" /><rect
         style="fill:#1a1a1a;fill-opacity:1;stroke:none;stroke-width:3.52777;stroke-dasharray:none;paint-order:stroke fill markers"
         id="rect15"
         width="11.780048"
         height="11.780048"
         x="22.489185"
         y="146.29868" /><rect
         style="fill:#f4f1ec;fill-opacity:1;stroke:none;stroke-width:3.52777;stroke-dasharray:none;paint-order:stroke fill markers"
         id="rect16"
         width="11.780048"
         height="11.780048"
         x="22.489185"
         y="160.63702" /><rect
         style="fill:#c27e67;fill-opacity:1;stroke:none;stroke-width:3.52777;stroke-dasharray:none;paint-order:stroke fill markers"
         id="rect1"
         width="11.780048"
         height="11.780048"
         x="22.489185"
         y="131.96033" /></g><g
       id="g1"
       transform="translate(13.984649,-2.4229642)"
       style="fill:#c27e67;fill-opacity:1"><g
         id="g181"
         transform="matrix(0.28607458,0,0,0.28607458,151.25301,87.832819)"
         style="fill:#c27e67;fill-opacity:1"><path
           d="m -83.913741,24.685832 c -0.954032,-0.01124 -1.93387,0.09999 -2.934188,0.33538 -3.96781,0.93365 -8.051444,3.486983 -16.303911,10.193693 -2.54662,2.06961 -6.37687,5.12609 -8.51215,6.79235 -2.13528,1.66625 -4.26464,3.464419 -4.73149,3.996139 -1.40761,1.60317 -2.09661,3.391086 -2.09961,5.448246 -0.004,2.47891 0.28648,3.489561 2.78381,9.708451 5.6482,14.06524 8.57083,25.08869 10.08827,38.04729 0.64676,5.520049 0.64543,17.796629 -0.002,23.068879 -1.30435,10.62059 -3.37179,18.78623 -7.23573,28.57758 -4.68338,11.86782 -10.96334,22.43859 -19.09806,32.14688 -4.85306,5.79183 -13.44861,13.92138 -19.81688,18.742 -2.70938,2.05093 -2.71754,2.06041 -2.24896,2.64429 13.71649,17.09132 16.25267,20.06718 22.15834,25.99996 6.94334,6.97521 11.53358,9.99305 16.2171,10.66188 h 5.2e-4 c 4.73575,0.67594 9.69681,-1.19217 15.86311,-5.97379 4.24711,-3.2934 11.137658,-9.78218 13.502018,-12.71447 12.12293,-15.03484 14.470551,-21.51861 10.467061,-28.90883 -2.72114,-5.02306 -8.539367,-10.32885 -24.483779,-22.32732 l -6.27145,-4.71961 0.53175,-1.04231 c 0.38294,-0.75063 0.65798,-1.00427 0.98237,-0.90537 0.24781,0.0756 2.29609,0.66526 4.55166,1.31051 2.25557,0.64524 7.61338,2.42257 11.90625,3.94963 14.42468,5.13117 17.740283,6.00928 22.663733,6.00428 4.80807,-0.005 7.857871,-1.20599 11.080461,-4.362 5.86422,-5.74306 11.136457,-18.09697 12.703617,-29.76615 0.44199,-3.2911 0.497486,-11.14095 0.104386,-14.76085 -0.3469,-3.19443 -1.372625,-8.36145 -2.112015,-10.63915 -2.05411,-6.32774 -5.771569,-10.07856 -11.631849,-11.73571 -4.31494,-1.22016 -5.751035,-1.31195 -22.291145,-1.42524 l -15.808855,-0.108 -0.141593,-0.57568 c -0.50077,-2.02973 -0.512933,-2.01502 2.787427,-3.415811 1.67349,-0.71028 5.881567,-2.361476 9.351367,-3.669026 16.28067,-6.13512 20.218211,-8.071374 24.066231,-11.837004 3.29768,-3.22708 4.304102,-5.807944 4.086572,-10.481014 -0.11278,-2.42271 -0.305546,-3.442571 -1.126546,-5.965011 -2.06194,-6.33502 -6.722936,-16.322893 -11.236006,-24.077083 -3.3468,-5.75033 -8.427111,-13.2395 -10.074321,-14.85129 -2.244525,-2.19627 -4.87335,-3.332992 -7.735445,-3.366719 z m 2.10013,23.589258 c 0.446044,0.0225 0.895887,0.07436 1.347722,0.157613 4.78374,0.88144 8.408204,4.582287 9.144144,9.336897 0.84879,5.48366 -2.702818,10.8245 -8.139038,12.24008 -6.35801,1.65562 -12.589047,-2.415936 -13.709757,-8.958626 -1.168219,-6.819975 4.666267,-13.113501 11.356929,-12.775964 z m 15.493628,78.52802 c 1.367014,0.0876 2.728465,0.37929 3.763595,0.85473 2.12466,0.97588 3.728879,2.34505 4.936649,4.2137 3.8407,5.94231 0.992872,14.02992 -5.757788,16.35249 -1.7384,0.59809 -5.167674,0.66986 -6.833174,0.14314 -3.55692,-1.12491 -6.507638,-4.23835 -7.431588,-7.84086 -1.45426,-5.67028 1.839869,-11.51374 7.527189,-13.35268 1.055885,-0.34141 2.428103,-0.45814 3.795117,-0.37052 z m -41.683757,71.4742 c 4.21471,-0.19425 8.390941,2.11893 10.512016,6.55154 0.75945,1.58705 0.822689,1.93422 0.822689,4.49792 0,2.56371 -0.06326,2.91085 -0.822689,4.49791 -1.52296,3.18266 -4.113126,5.36378 -7.369056,6.20634 -3.91486,1.01308 -7.86823,-0.16685 -10.74302,-3.20652 -4.18232,-4.42219 -4.00238,-11.23537 0.40721,-15.40578 2.12099,-2.00593 4.66402,-3.02486 7.19285,-3.14141 z"
           id="path118"
           style="fill:#c27e67;fill-opacity:1" /><path
           d="m -329.29825,19.375562 c -2.95413,-0.05542 -5.78277,1.166274 -8.26254,3.648356 -1.37205,1.37333 -8.13619,10.329003 -11.01897,14.588773 -7.15999,10.58007 -11.75313,21.103308 -12.18272,27.912508 -0.43884,6.95598 3.23737,12.185403 12.45919,17.723983 3.94624,2.3701 8.18046,4.503448 19.72696,9.938928 10.52999,4.95695 10.00577,4.615842 9.64489,6.269902 -0.12905,0.591308 -0.16186,0.595308 -5.06739,0.595308 -2.71564,0 -10.00582,-0.247786 -16.20056,-0.550866 -12.34291,-0.60388 -19.17748,-0.56986 -21.22764,0.10542 -5.14745,1.695446 -8.58068,5.291526 -9.86814,10.335806 -0.79824,3.12756 -1.72002,14.52974 -1.72702,21.35838 -0.009,9.49196 1.37118,18.99013 3.52846,24.27552 2.6175,6.41292 6.79624,10.22125 13.00386,11.85148 2.63508,0.69247 11.7169,0.69644 15.875,0.007 4.20639,-0.69723 26.10878,-4.671 26.65677,-4.8364 0.94895,-0.28642 0.38424,0.38386 -2.57142,3.05201 -4.14166,3.73876 -8.2286,6.9798 -14.95722,11.8613 -6.9027,5.00779 -8.64757,6.49258 -10.22108,8.69766 -2.09511,2.93603 -2.88192,5.98962 -2.4443,9.48986 0.32049,2.56334 0.80996,3.93304 2.92127,8.17624 2.21067,4.4429 3.40306,6.51737 5.95467,10.36216 5.1739,7.7961 12.34322,15.08773 19.40037,19.73058 3.86618,2.54353 5.81345,3.34802 9.12761,3.77134 v -5.1e-4 c 1.27919,0.16339 4.39016,-0.10863 5.82083,-0.50902 0.7276,-0.20362 2.42836,-1.00486 3.77962,-1.78025 8.90713,-5.11116 17.11236,-12.86464 28.19827,-26.64592 1.69367,-2.10547 3.07779,-3.89145 3.07579,-3.96875 -0.002,-0.0773 -0.92235,-0.73587 -2.04587,-1.46347 -2.73882,-1.77368 -6.84299,-4.81753 -9.59218,-7.1143 -17.77455,-14.84947 -28.81261,-34.09321 -33.17731,-57.84091 -5.9529,-32.38888 2.43772,-59.138756 25.82685,-82.338646 l 3.65508,-3.625618 -13.82913,-10.421586 c -15.27705,-11.51331 -24.14319,-18.086924 -27.2464,-20.200834 -2.34425,-1.596902 -4.71794,-2.412559 -7.0156,-2.455664 z m -1.25418,21.279321 c 2.85434,0 2.98123,0.02556 4.94543,0.996321 8.2539,4.07928 8.26327,15.619429 0.016,19.695439 -1.83351,0.90617 -2.212,0.994367 -4.54339,1.059367 -3.80066,0.10604 -5.97758,-0.789085 -8.42171,-3.463355 -3.1653,-3.46335 -3.86409,-8.021407 -1.87792,-12.246797 0.89877,-1.91206 3.17878,-4.183568 5.19555,-5.176428 1.6628,-0.81858 1.91214,-0.864547 4.68602,-0.864547 z m -21.35064,81.261707 c 5.11185,-0.30511 10.34046,2.93039 11.56829,8.8191 1.14263,5.48007 -2.15049,11.06176 -7.50135,12.71447 -10.0747,3.11176 -18.38771,-8.40125 -12.25248,-16.96899 2.09358,-2.92366 5.11844,-4.38152 8.18554,-4.56458 z m 38.6116,71.02874 c 1.09151,0.002 2.20603,0.16699 3.31504,0.50953 5.26645,1.62664 8.67833,7.27487 7.59695,12.57649 -0.90285,4.42633 -4.53806,8.00566 -8.98808,8.84959 -1.72777,0.32766 -2.38665,0.31189 -4.24418,-0.1018 -6.31921,-1.40735 -10.10732,-7.8481 -8.2088,-13.95729 1.5049,-4.84256 5.79918,-7.88556 10.52907,-7.87652 z"
           id="path117"
           style="fill:#c27e67;fill-opacity:1" /><path
           d="m -194.83669,-117.36596 c -2.62381,-0.0316 -5.64043,0.0653 -7.93956,0.30385 -7.61073,0.78976 -10.44017,1.61793 -17.38654,5.08962 -8.40536,4.20088 -13.66537,7.96701 -20.06182,14.363461 -6.42053,6.42053 -10.76215,12.51409 -14.38569,20.190499 -11.24687,23.82631 -9.81375,51.593543 3.85196,74.6243853 8.83517,14.8899377 27.53847,32.5498157 48.71486,45.9966757 13.57361,8.61913 16.11842,10.512412 21.7749,16.205212 10.57744,10.64535 16.49141,22.808276 18.54202,38.132556 0.62897,4.699971 0.63948,15.117561 0.0196,19.608621 -0.52567,3.80862 -1.43233,7.42544 -2.73575,10.9151 -6.41583,17.17713 -22.33988,29.93324 -40.53086,32.4683 -4.28144,0.59665 -11.74391,0.4072 -15.75304,-0.39998 -8.57414,-1.72629 -15.6218,-5.4214 -21.47466,-11.25926 -5.50766,-5.49353 -8.95274,-11.88832 -10.62157,-19.71507 -0.73719,-3.45742 -0.67126,-12.13421 0.11989,-15.75976 2.52271,-11.56076 7.84257,-18.432032 16.59847,-21.439522 1.72864,-0.59376 2.5532,-0.7234 4.49792,-0.7059 3.8727,0.0348 7.74513,1.602466 8.74778,3.541386 0.67298,1.3014 0.40416,4.266785 -0.66869,7.376296 -1.28442,3.72271 -1.93018,4.83272 -3.64164,6.26008 -5.00915,4.17766 -7.52174,7.70703 -9.10642,12.78992 -0.52253,1.67592 -0.61782,2.53958 -0.61082,5.55625 0.007,3.20782 0.0826,3.7876 0.74208,5.68854 2.66516,7.68226 8.95549,12.99183 18.09037,15.26987 3.15221,0.78609 9.93526,0.84107 13.30254,0.10749 13.20709,-2.87723 23.11747,-12.29711 27.60245,-26.23613 4.79234,-14.89427 2.6092,-32.260312 -5.79654,-46.105712 -7.72627,-12.72621 -22.61003,-22.184188 -39.4007,-25.037748 -16.57764,-2.81736 -35.11176,1.586169 -48.62287,11.551749 -14.75287,10.88148 -23.36912,26.119515 -26.41234,46.710841 -0.68421,4.62963 -0.96163,14.9253 -0.52917,19.6386 1.42435,15.52351 6.11734,29.1828 14.18157,41.275 2.96639,4.44807 5.16741,7.15348 9.11882,11.20913 8.01087,8.2222 16.35581,13.87103 27.1539,18.38079 9.4617,3.95162 18.57403,6.05115 31.59238,7.27966 2.24797,0.21213 12.56827,0.14728 15.21355,-0.0956 4.26572,-0.39167 8.32786,-0.99877 11.77395,-1.7601 37.84051,-8.35995 63.24634,-39.35599 69.36166,-84.62326 0.53853,-3.98666 0.60713,-5.56554 0.60513,-13.89062 -0.003,-10.031721 -0.16731,-12.075438 -1.58698,-19.770888 -1.80737,-9.79696 -4.85357,-18.663918 -9.65988,-28.118698 -5.00038,-9.83657 -11.01835,-18.107053 -19.41845,-26.686743 -5.20122,-5.31241 -8.64317,-8.255476 -21.70668,-18.561141 -20.93025,-16.5116521 -33.226,-26.905825 -39.31285,-33.23208 -6.16994,-6.412622 -10.5644,-15.022796 -12.64006,-24.767997 -2.19379,-10.299788 -1.35194,-22.273111 2.24173,-31.891077 2.75089,-7.362361 7.62195,-14.740502 12.95425,-19.621541 4.23394,-3.875635 10.54113,-7.785925 15.67966,-9.720855 4.56959,-1.7207 6.12831,-3.25714 6.12831,-6.04046 0,-2.10116 -1.20011,-3.93747 -3.02359,-4.62659 -0.72791,-0.27509 -2.95879,-0.43551 -5.58261,-0.46715 z M -208.27256,1.4195516 c 4.6929,0.086585 9.21657,3.1697141 10.55543,8.4113729 1.36442,5.3417225 -1.62325,11.0255835 -6.84403,13.0203935 -1.84067,0.7033 -4.9347,0.85357 -6.79855,0.33073 -8.1572,-2.28822 -10.86461,-12.528281 -4.89169,-18.5011968 2.28645,-2.2864545 5.1631,-3.3132509 7.97884,-3.2612996 z m 0.20722,114.2839784 c 5.13106,0.15732 9.2441,3.51752 10.45673,8.66304 1.26274,5.35814 -2.51398,11.62303 -7.80417,12.94546 -5.26827,1.31696 -10.32707,-0.84802 -12.79302,-5.4746 -3.7593,-7.05317 1.12398,-15.70331 9.10125,-16.12201 0.35056,-0.0184 0.69714,-0.0224 1.03921,-0.0119 z"
           id="path116"
           style="fill:#c27e67;fill-opacity:1" /></g><path
         d="M 43.045286,142.21259 4.5160119,126.04185 v -8.6629 L 43.045286,101.2082 v 11.46803 l -29.206345,11.55053 v -4.95022 l 29.206345,11.55053 z"
         id="text1"
         style="font-weight:bold;font-size:82.5038px;font-family:Outfit;-inkscape-font-specification:'Outfit Bold';fill:#c27e67;fill-opacity:1;stroke-width:8.59417;paint-order:stroke fill markers"
         aria-label="&lt;" /><path
         d="m 140.79532,142.58292 38.52927,-16.17074 v -8.6629 l -38.52927,-16.17075 v 11.46803 l 29.20634,11.55053 v -4.95022 l -29.20634,11.55053 z"
         id="path1"
         style="font-weight:bold;font-size:82.5038px;font-family:Outfit;-inkscape-font-specification:'Outfit Bold';fill:#c27e67;fill-opacity:1;stroke-width:8.59417;paint-order:stroke fill markers"
         aria-label="&lt;" /></g><text
       xml:space="preserve"
       style="font-weight:bold;font-size:30.9732px;font-family:Outfit;-inkscape-font-specification:'Outfit Bold';writing-mode:lr-tb;direction:ltr;fill:#2a9d8f;fill-opacity:1;stroke-width:3.22639;paint-order:stroke fill markers"
       x="-138.94299"
       y="49.207088"
       id="text2"><tspan
         sodipodi:role="line"
         id="tspan1"
         style="stroke-width:3.22639"
         x="-138.94299"
         y="49.207088">Calmécac</tspan></text><text
       xml:space="preserve"
       style="font-weight:bold;font-size:16.9333px;font-family:Outfit;-inkscape-font-specification:'Outfit Bold';writing-mode:lr-tb;direction:ltr;fill:#2a9d8f;fill-opacity:1;stroke-width:1.76389;paint-order:stroke fill markers"
       x="-34.035336"
       y="64.046982"
       id="text3"><tspan
         sodipodi:role="line"
         id="tspan2"
         style="font-style:normal;font-variant:normal;font-weight:bold;font-stretch:normal;font-family:Monospace;-inkscape-font-specification:'Monospace Bold';stroke-width:1.76389"
         x="-34.035336"
         y="64.046982">.dev</tspan></text></g></svg>
